# xmcd
#
# Track frame offsets:
#	150
#	11987
#	28477
#	46475
#	58204
#	71333
#	89571
#	100638
#	111639
#	121588
#	134807
#	147393
#	175753
#	188997
#	199660
#
# Disc length: 2810 seconds
#
# Revision: 0
# Processed by: cddbd v1.5.1PL0 Copyright (c) Steve Scherf et al.
# Submitted via: audiograbber 1.83.01
#
DISCID=e80af80f
DTITLE=Harry Fontana - Harry Fontana
DYEAR=1900
DGENRE=Rockabilly
TTITLE0=Jitterbug
TTITLE1=Give Me A Call
TTITLE2=Sweet Baby Doll
TTITLE3=She Ain't Worth It
TTITLE4=Grandpa's A Cat
TTITLE5=Cats On Broadway
TTITLE6=Tryin' For A Long Time
TTITLE7=Long Blonde Hair
TTITLE8=Why Would I Love You
TTITLE9=Rockabilly House
TTITLE10=Boo Hoo
TTITLE11=Train Kept a Rollin' (with hidden track)
TTITLE12=Evernight
TTITLE13=Everyday (Version 1)
TTITLE14=Everyday (Version 2)
EXTD=Harry works out of Nashville TN
EXTT0=
EXTT1=
EXTT2=
EXTT3=
EXTT4=
EXTT5=
EXTT6=
EXTT7=
EXTT8=
EXTT9=
EXTT10=
EXTT11=
EXTT12=
EXTT13=
EXTT14=
PLAYORDER=
